<svg width="14" height="14" viewBox="0 0 14 14" fill="none" xmlns="http://www.w3.org/2000/svg">
<g id="&#231;&#188;&#150;&#231;&#187;&#132; 18">
<path id="&#229;&#189;&#162;&#231;&#138;&#182;" fill-rule="evenodd" clip-rule="evenodd" d="M3.86703 2H11.1655C11.6532 2 12.1208 2.19411 12.4651 2.53944C12.8093 2.88478 13.0018 3.3529 12.9999 3.84036L12.9807 9.66815C12.9769 10.6781 12.1771 11.1667 11.1667 11.1667H3.85494L2 13L2.03256 3.82615C2.0366 2.81641 2.85674 1.99999 3.86703 2ZM4.75 5.20833C4.75 5.46144 4.92586 5.66663 5.14281 5.66667H9.85719C10.0741 5.66663 10.25 5.46144 10.25 5.20833C10.25 4.95523 10.0741 4.75004 9.85719 4.75H5.14281C4.92586 4.75004 4.75 4.95523 4.75 5.20833ZM5.20828 8.41667C4.95517 8.41663 4.75 8.21144 4.75 7.95833C4.75 7.70523 4.95517 7.50004 5.20828 7.5H7.95838C8.2115 7.50004 8.41667 7.70523 8.41667 7.95833C8.41667 8.21144 8.2115 8.41663 7.95838 8.41667H5.20828Z" fill="#217fff"/>
</g>
</svg>
